<?xml version="1.0" encoding="utf-8"?>
<!-- Generator: Adobe Illustrator 22.0.1, SVG Export Plug-In . SVG Version: 6.00 Build 0)  -->
<svg version="1.1" id="Capa_1" xmlns="http://www.w3.org/2000/svg" xmlns:xlink="http://www.w3.org/1999/xlink" x="0px" y="0px"
	 viewBox="0 0 800 800" style="enable-background:new 0 0 800 800;" xml:space="preserve">
<style type="text/css">
	.st0{clip-path:url(#SVGID_2_);}
	.st1{fill:#898989;}
	.st2{font-family:'SitkaBanner';}
	.st3{font-size:72px;}
</style>
<g>
	<defs>
		<rect id="SVGID_1_" width="800" height="800"/>
	</defs>
	<clipPath id="SVGID_2_">
		<use xlink:href="#SVGID_1_"  style="overflow:visible;"/>
	</clipPath>
	<g class="st0">
		<g>
			<g>
				<polygon class="st1" points="248.2,273.6 244.6,273.6 244.6,267.4 250.9,267.4 250.9,270.9 248.2,270.9 				"/>
			</g>
			<g>
				<path class="st1" d="M248.2,484.4h-3.6v-8.8h3.6V484.4z M248.2,466.8h-3.6V458h3.6V466.8z M248.2,449.3h-3.6v-8.8h3.6V449.3z
					 M248.2,431.7h-3.6v-8.8h3.6V431.7z M248.2,414.1h-3.6v-8.8h3.6V414.1z M248.2,396.6h-3.6v-8.8h3.6V396.6z M248.2,379h-3.6v-8.8
					h3.6V379z M248.2,361.4h-3.6v-8.8h3.6V361.4z M248.2,343.9h-3.6v-8.8h3.6V343.9z M248.2,326.3h-3.6v-8.8h3.6V326.3z
					 M248.2,308.7h-3.6v-8.8h3.6V308.7z M248.2,291.2h-3.6v-8.8h3.6V291.2z"/>
			</g>
			<g>
				<polygon class="st1" points="249.7,501.1 244.6,498.7 244.6,493.2 248.2,493.2 248.2,496.5 251.2,497.9 				"/>
			</g>
			<g>
				<path class="st1" d="M387.6,565.3l-7.7-3.6l1.5-3.2l7.7,3.6L387.6,565.3z M372.3,558.1l-7.7-3.6l1.5-3.2l7.7,3.6L372.3,558.1z
					 M357,551l-7.7-3.6l1.5-3.2l7.7,3.6L357,551z M341.7,543.9l-7.7-3.6l1.5-3.2l7.7,3.6L341.7,543.9z M326.3,536.8l-7.7-3.6
					l1.5-3.2l7.7,3.6L326.3,536.8z M311,529.6l-7.7-3.6l1.5-3.2l7.7,3.6L311,529.6z M295.7,522.5l-7.7-3.6l1.5-3.2l7.7,3.6
					L295.7,522.5z M280.3,515.4l-7.7-3.6l1.5-3.2l7.7,3.6L280.3,515.4z M265,508.2l-7.7-3.6l1.5-3.2l7.7,3.6L265,508.2z"/>
			</g>
			<g>
				<polygon class="st1" points="400.1,571.1 395.3,568.8 396.8,565.6 400.1,567.1 403.4,565.6 404.8,568.8 				"/>
			</g>
			<g>
				<path class="st1" d="M412.5,565.3l-1.5-3.2l7.7-3.6l1.5,3.2L412.5,565.3z M427.9,558.1l-1.5-3.2l7.7-3.6l1.5,3.2L427.9,558.1z
					 M443.2,551l-1.5-3.2l7.7-3.6l1.5,3.2L443.2,551z M458.6,543.9l-1.5-3.2l7.7-3.6l1.5,3.2L458.6,543.9z M473.9,536.8l-1.5-3.2
					l7.7-3.6l1.5,3.2L473.9,536.8z M489.3,529.6l-1.5-3.2l7.7-3.6l1.5,3.2L489.3,529.6z M504.6,522.5l-1.5-3.2l7.7-3.6l1.5,3.2
					L504.6,522.5z M520,515.4l-1.5-3.2l7.7-3.6l1.5,3.2L520,515.4z M535.3,508.2l-1.5-3.2l7.7-3.6l1.5,3.2L535.3,508.2z"/>
			</g>
			<g>
				<polygon class="st1" points="550.7,501.1 549.2,497.9 552.2,496.5 552.2,493.2 555.8,493.2 555.8,498.7 				"/>
			</g>
			<g>
				<path class="st1" d="M555.8,484.4h-3.6v-8.8h3.6V484.4z M555.8,466.8h-3.6V458h3.6V466.8z M555.8,449.3h-3.6v-8.8h3.6V449.3z
					 M555.8,431.7h-3.6v-8.8h3.6V431.7z M555.8,414.1h-3.6v-8.8h3.6V414.1z M555.8,396.6h-3.6v-8.8h3.6V396.6z M555.8,379h-3.6v-8.8
					h3.6V379z M555.8,361.4h-3.6v-8.8h3.6V361.4z M555.8,343.9h-3.6v-8.8h3.6V343.9z M555.8,326.3h-3.6v-8.8h3.6V326.3z
					 M555.8,308.7h-3.6v-8.8h3.6V308.7z M555.8,291.2h-3.6v-8.8h3.6V291.2z"/>
			</g>
			<g>
				<polygon class="st1" points="555.8,273.6 552.2,273.6 552.2,270.9 549.5,270.9 549.5,267.4 555.8,267.4 				"/>
			</g>
			<g>
				<path class="st1" d="M540.5,270.9h-9v-3.6h9V270.9z M522.4,270.9h-9v-3.6h9V270.9z M504.3,270.9h-9.1v-3.6h9.1V270.9z
					 M486.2,270.9h-9.1v-3.6h9.1V270.9z M468.1,270.9H459v-3.6h9.1V270.9z M450,270.9h-9v-3.6h9V270.9z M431.9,270.9h-9.1v-3.6h9.1
					V270.9z M413.8,270.9h-9.1v-3.6h9.1V270.9z M395.7,270.9h-9.1v-3.6h9.1V270.9z M377.6,270.9h-9.1v-3.6h9.1V270.9z M359.5,270.9
					h-9.1v-3.6h9.1V270.9z M341.4,270.9h-9.1v-3.6h9.1V270.9z M323.3,270.9h-9.1v-3.6h9.1V270.9z M305.2,270.9h-9.1v-3.6h9.1V270.9z
					 M287.1,270.9H278v-3.6h9.1V270.9z M269,270.9h-9.1v-3.6h9.1V270.9z"/>
			</g>
		</g>
		<path class="st1" d="M555.9,247.8c0-20.8,0-111.8,0-121.5c0-10.9-65.1-2.7-67.8,0c-2.7,2.7-3,6.1-3,6.1h52.6v2.5h-47.1v1.8h47.1
			v2.4h-47.1v1.8h47.1v2.4h-47.1v1.8h47.1v2.4h-47.1v1.8h47.1v2.4h-47.1v1.8h47.1v2.4h-47.1v1.8h47.1v2.4h-47.1v1.8h47.1v2.4h-47.1
			v1.8h47.1v2.4h-47.1v1.8h47.1v2.4h-47.1v1.8h47.1v2.4h-47.1v1.8h47.1v2.4h-47.1v1.8h47.1v2.4h-47.1v1.8h47.1v2.4h-47.1v1.8h47.1
			v2.4h-47.1v1.8h47.1v2.4h-47.1v1.8h47.1v2.4h-47.1v1.8h47.1v2.4h-47.1v1.8h47.1v2.4h-47.1v1.8h47.1v2.4h-47.1v1.8h47.1v2.4h-47.1
			v1.8h47.1v2.4h-47.1v1.8h47.1v2.4h-47.1v1.8h47.1v2.4h-47.1v1.8h47.1v2.4h-47.1v1.8h47.1v2.4h-47.1v1.8h47.1v2.4h-47.1v1.8h47.1
			v2.1h-95.9v-22.3l14.9-41.1c13.8-0.2,24.9-11.4,24.9-25.3c0-14-11.3-25.3-25.3-25.3c-14,0-25.3,11.3-25.3,25.3
			c0,9.4,5.1,17.5,12.7,21.9c0,0-12.3,45.4-17.1,45.4c-4.8,0-17.1-45.4-17.1-45.4c7.6-4.4,12.7-12.5,12.7-21.9
			c0-14-11.3-25.3-25.3-25.3c-4.9,0-9.5,1.4-13.3,3.8l-20.9-17.5l0,0c-2-1.6-4.9-1.4-6.5,0.6c-1.6,2-1.4,4.9,0.6,6.5l20,16.8
			c-3.2,4.2-5,9.5-5,15.2c0,13.8,11.1,25,24.9,25.3l14.9,41.1v22.3h-58.8c-0.8-22.1-4.6-123.4-6.5-125.2c-2-2-5.4-1.8-5.4-1.8
			c0,0-3.3-0.3-5.4,1.8c-1.8,1.8-5.6,103.1-6.5,125.2h-39.8l4.2-48.2l13.4-76l2-11.2l-11.2-2l-22.6-4.8c-6.2-1.1-12,3-13.1,9.2
			l-1.1,6L244.5,210l10.6,3l5.9,24l0,10.9h-36.3l0,261.5l175.4,81.6l175.7-81.6V247.8H555.9z M440.9,159.2c0-8.5,6.9-15.4,15.4-15.4
			s15.4,6.9,15.4,15.4c0,8.5-6.9,15.4-15.4,15.4S440.9,167.7,440.9,159.2z M396.8,174.6c-8.5,0-15.4-6.9-15.4-15.4
			c0-8.5,6.9-15.4,15.4-15.4c8.5,0,15.4,6.9,15.4,15.4C412.1,167.7,405.3,174.6,396.8,174.6z M422.8,235.7c0-2,1.7-3.7,3.7-3.7
			c2,0,3.7,1.7,3.7,3.7c0,1.7-1.2,3.1-2.8,3.6v8.6h-1.9v-8.6C424,238.8,422.8,237.4,422.8,235.7z M566.8,503.6l-166.8,77.5
			l-166.5-77.5l0-246.9h333.3V503.6z"/>
		<path class="st1" d="M249.8,236.1"/>
		<text transform="matrix(1 0 0 1 318.9128 378.9849)"><tspan x="0" y="0" class="st1 st2 st3">Dolya </tspan><tspan x="34.9" y="86.4" class="st1 st2 st3">223</tspan></text>
	</g>
</g>
</svg>
