<?xml version="1.0" encoding="utf-8"?>
<!-- Generator: Adobe Illustrator 22.0.1, SVG Export Plug-In . SVG Version: 6.00 Build 0)  -->
<svg version="1.1" id="Слой_1" xmlns="http://www.w3.org/2000/svg" xmlns:xlink="http://www.w3.org/1999/xlink" x="0px" y="0px"
	 viewBox="0 0 595.3 841.9" style="enable-background:new 0 0 595.3 841.9;" xml:space="preserve">
<style type="text/css">
	.st0{fill:none;stroke:#878787;stroke-width:2;stroke-miterlimit:10;}
	.st1{fill:none;stroke:#878787;stroke-miterlimit:10;}
	.st2{fill-rule:evenodd;clip-rule:evenodd;fill:none;stroke:#878787;stroke-miterlimit:10;}
	.st3{fill-rule:evenodd;clip-rule:evenodd;fill:none;stroke:#878787;stroke-width:0.5;stroke-miterlimit:10;}
	.st4{fill:#C2B6AC;}
	.st5{font-family:'DolceVita';}
	.st6{font-size:24px;}
</style>
<g>
	<polygon class="st0" points="395.1,476.6 297.1,533.2 199,476.6 199,363.4 297.1,306.8 395.1,363.4 	"/>
	<polygon class="st1" points="248.1,504.8 199.2,420 248.1,335.3 346,335.3 394.9,420 346,504.8 	"/>
	<polygon class="st1" points="370.4,462.4 297.1,504.8 223.7,462.4 223.7,377.7 297.1,335.3 370.4,377.7 	"/>
	<g>
		<polyline class="st2" points="283.8,386.3 310.7,359.7 307.1,356.4 		"/>
		<line class="st2" x1="283.9" y1="364.3" x2="305.8" y2="386.6"/>
		<path class="st2" d="M311,385c0,1.6-1.3,2.8-2.8,2.8c-1.6,0-2.8-1.3-2.8-2.8c0-1.6,1.3-2.8,2.8-2.8C309.7,382.1,311,383.4,311,385
			z"/>
		<circle class="st2" cx="281.4" cy="384.9" r="2.8"/>
		<line class="st3" x1="300.4" y1="362.9" x2="302.1" y2="364.6"/>
		<line class="st3" x1="301.3" y1="362" x2="303.1" y2="363.7"/>
		<line class="st3" x1="302.4" y1="361.1" x2="304.1" y2="362.8"/>
		<line class="st3" x1="303.3" y1="360.1" x2="305" y2="361.8"/>
		<line class="st3" x1="304.2" y1="359.2" x2="306" y2="360.8"/>
		<line class="st3" x1="305.1" y1="358.2" x2="306.9" y2="359.9"/>
		<line class="st3" x1="306.2" y1="357.3" x2="307.9" y2="359"/>
		<line class="st3" x1="293.5" y1="369.6" x2="295.3" y2="371.3"/>
		<line class="st3" x1="294.5" y1="368.7" x2="296.2" y2="370.4"/>
		<line class="st3" x1="295.5" y1="367.8" x2="297.2" y2="369.5"/>
		<line class="st3" x1="296.4" y1="366.8" x2="298.1" y2="368.5"/>
		<line class="st3" x1="297.3" y1="365.8" x2="299.1" y2="367.5"/>
		<line class="st3" x1="298.3" y1="364.9" x2="300" y2="366.6"/>
		<line class="st3" x1="299.3" y1="364" x2="301" y2="365.7"/>
	</g>
</g>
<text transform="matrix(1 0 0 1 262.5136 434.8223)"><tspan x="0" y="0" class="st4 st5 st6">DOLYA</tspan><tspan x="20.6" y="28.8" class="st4 st5 st6">223</tspan></text>
</svg>
