<?xml version="1.0" encoding="utf-8"?>
<!-- Generator: Adobe Illustrator 22.0.1, SVG Export Plug-In . SVG Version: 6.00 Build 0)  -->
<svg version="1.1" id="Слой_1" xmlns="http://www.w3.org/2000/svg" xmlns:xlink="http://www.w3.org/1999/xlink" x="0px" y="0px"
	 viewBox="0 0 225 225" style="enable-background:new 0 0 225 225;" xml:space="preserve">
<style type="text/css">
	.st0{fill:none;stroke:#878787;stroke-width:2;stroke-miterlimit:10;}
	.st1{fill:none;stroke:#878787;stroke-miterlimit:10;}
	.st2{fill-rule:evenodd;clip-rule:evenodd;fill:none;stroke:#878787;stroke-miterlimit:10;}
	.st3{fill-rule:evenodd;clip-rule:evenodd;fill:none;stroke:#878787;stroke-width:0.5;stroke-miterlimit:10;}
	.st4{fill:#C2B6AC;}
	.st5{font-family:'DolceVita';}
	.st6{font-size:24px;}
</style>
<g>
	<polygon class="st0" points="210.1,169.6 112.1,226.2 14,169.6 14,56.4 112.1,-0.2 210.1,56.4 	"/>
	<polygon class="st1" points="63.1,197.8 14.2,113 63.1,28.3 161,28.3 209.9,113 161,197.8 	"/>
	<polygon class="st1" points="185.4,155.4 112.1,197.8 38.7,155.4 38.7,70.7 112.1,28.3 185.4,70.7 	"/>
	<g>
		<polyline class="st2" points="98.8,79.3 125.7,52.7 122.1,49.4 		"/>
		<line class="st2" x1="98.9" y1="57.3" x2="120.8" y2="79.6"/>
		<path class="st2" d="M126,78c0,1.6-1.3,2.8-2.8,2.8c-1.6,0-2.8-1.3-2.8-2.8c0-1.6,1.3-2.8,2.8-2.8C124.7,75.1,126,76.4,126,78z"/>
		<circle class="st2" cx="96.4" cy="77.9" r="2.8"/>
		<line class="st3" x1="115.4" y1="55.9" x2="117.1" y2="57.6"/>
		<line class="st3" x1="116.3" y1="55" x2="118.1" y2="56.7"/>
		<line class="st3" x1="117.3" y1="54.1" x2="119.1" y2="55.8"/>
		<line class="st3" x1="118.3" y1="53.1" x2="120" y2="54.8"/>
		<line class="st3" x1="119.2" y1="52.2" x2="121" y2="53.8"/>
		<line class="st3" x1="120.1" y1="51.2" x2="121.9" y2="52.9"/>
		<line class="st3" x1="121.2" y1="50.3" x2="122.9" y2="52"/>
		<line class="st3" x1="108.5" y1="62.6" x2="110.3" y2="64.3"/>
		<line class="st3" x1="109.5" y1="61.7" x2="111.2" y2="63.4"/>
		<line class="st3" x1="110.5" y1="60.8" x2="112.2" y2="62.5"/>
		<line class="st3" x1="111.4" y1="59.8" x2="113.1" y2="61.5"/>
		<line class="st3" x1="112.3" y1="58.8" x2="114.1" y2="60.5"/>
		<line class="st3" x1="113.3" y1="57.9" x2="115" y2="59.6"/>
		<line class="st3" x1="114.3" y1="57" x2="116" y2="58.7"/>
	</g>
</g>
<text transform="matrix(1 0 0 1 77.5136 127.8223)"><tspan x="0" y="0" class="st4 st5 st6">DOLYA</tspan><tspan x="20.6" y="28.8" class="st4 st5 st6">223</tspan></text>
</svg>
